<?xml version="1.0" encoding="UTF-8" standalone="no"?>
<!-- Generator: Adobe Illustrator 24.3.0, SVG Export Plug-In . SVG Version: 6.00 Build 0)  -->

<svg
   version="1.1"
   id="Layer_1"
   x="0px"
   y="0px"
   viewBox="0 0 1080 1080"
   style="enable-background:new 0 0 1080 1080;"
   xml:space="preserve"
   sodipodi:docname="Outsources_1.svg"
   inkscape:version="1.2.2 (b0a8486541, 2022-12-01)"
   xmlns:inkscape="http://www.inkscape.org/namespaces/inkscape"
   xmlns:sodipodi="http://sodipodi.sourceforge.net/DTD/sodipodi-0.dtd"
   xmlns="http://www.w3.org/2000/svg"
   xmlns:svg="http://www.w3.org/2000/svg"><defs
   id="defs75" /><sodipodi:namedview
   id="namedview73"
   pagecolor="#ffffff"
   bordercolor="#000000"
   borderopacity="0.25"
   inkscape:showpageshadow="2"
   inkscape:pageopacity="0.0"
   inkscape:pagecheckerboard="0"
   inkscape:deskcolor="#d1d1d1"
   showgrid="false"
   inkscape:zoom="0.71018519"
   inkscape:cx="539.29596"
   inkscape:cy="541.40808"
   inkscape:window-width="1920"
   inkscape:window-height="1043"
   inkscape:window-x="0"
   inkscape:window-y="0"
   inkscape:window-maximized="1"
   inkscape:current-layer="Layer_1" />
<style
   type="text/css"
   id="style2">
	.st0{fill:#FEF6E5;}
	.st1{fill:#FDFBF4;}
	.st2{fill:#C6710B;}
	.st3{fill:#FDBF0F;}
	.st4{fill:#F6E7C0;}
	.st5{fill:#F7AA01;}
	.st6{fill:#5D310A;}
	.st7{fill:#DD680C;}
	.st8{fill:#FED749;}
	.st9{fill:#FFF2CD;}
	.st10{fill:#C14E05;}
	.st11{fill:#00344E;}
	.st12{fill:#090F11;}
	.st13{fill:#004C70;}
	.st14{fill:#00293E;}
	.st15{fill:#014C6F;}
	.st16{fill:#FCB56E;}
	.st17{fill:#6D3309;}
	.st18{fill:#F16202;}
	.st19{fill:#B46317;}
	.st20{fill:#E4982C;}
	.st21{fill:#79B71B;}
	.st22{fill:#F36B5B;}
	.st23{fill:#F8B46E;}
	.st24{fill:#482005;}
	.st25{fill:#F08543;}
	.st26{fill:#C53502;}
	.st27{fill:#0195D2;}
	.st28{fill:#FDDEB2;}
	.st29{fill:#F4CA05;}
	.st30{fill:#F7F0E5;}
	.st31{fill:#E17E08;}
	.st32{fill:#4D7B0C;}
	.st33{fill:#4E7D0F;}
	.st34{fill:#F6392C;}
	.st35{fill:#FDD79A;}
	.st36{fill:#0A0A0A;}
	.st37{fill:#FEFFFF;}
	.st38{fill:#FFBA87;}
	.st39{fill:#EC3C02;}
	.st40{fill:#A74900;}
	.st41{fill:#FFB600;}
	.st42{fill:#C3CFD9;}
	.st43{fill:#712C00;}
	.st44{fill:#FFB57F;}
	.st45{fill:#D16C14;}
	.st46{fill:#722C00;}
	.st47{fill:#F2955E;}
	.st48{fill:#FF658A;}
	.st49{fill:#C2CFD8;}
	.st50{fill:#E93902;}
	.st51{fill:#C02200;}
	.st52{fill:#F2955C;}
	.st53{fill:#C2600C;}
	.st54{fill:#F1955C;}
	.st55{fill:#00A4E2;}
	.st56{fill:#C42100;}
	.st57{fill:#FFC772;}
	.st58{fill:#D86E00;}
	.st59{fill:#68B02F;}
	.st60{fill:#B7B7B7;}
	.st61{fill:#44880F;}
	.st62{fill:#0B0810;}
	.st63{fill:#FED7AB;}
	.st64{fill:#FFBB87;}
	.st65{fill:#8AD648;}
	.st66{fill:#18497B;}
	.st67{fill:#4FBBF1;}
	.st68{fill:#FDD544;}
	.st69{fill:#FB5D1B;}
	.st70{fill:#F29D43;}
	.st71{fill:#E7406D;}
	.st72{fill:#FF92BC;}
	.st73{fill:#0075AD;}
	.st74{fill:#FFE5A0;}
	.st75{fill:#FFCC9D;}
	.st76{fill:#BA2100;}
	.st77{fill:#CECECE;}
	.st78{fill:#E6E6E6;}
	.st79{fill:#CACACA;}
	.st80{fill:#BE6010;}
	.st81{fill:#F9F9F9;}
	.st82{fill:#474747;}
	.st83{fill:#F2945B;}
	.st84{fill:#252525;}
	.st85{fill:#0B91CF;}
	.st86{fill:#CBCBCB;}
	.st87{fill:#CFCFCF;}
	.st88{fill:#383838;}
	.st89{fill:#9B9B9B;}
	.st90{fill:#E1E1E1;}
	.st91{fill:#D2D2D2;}
	.st92{fill:#DADADA;}
	.st93{fill:#FEFEFE;}
	.st94{fill:#0B0B0B;}
	.st95{fill:#FAA265;}
	.st96{fill:#FFD3A7;}
	.st97{fill:#0C0C0C;}
	.st98{fill:#FBFBFB;}
	.st99{fill:#F44418;}
	.st100{fill:#D7230A;}
	.st101{fill:#F6F6F6;}
	.st102{fill:#D2CDBD;}
	.st103{fill:#010D12;}
	.st104{fill:#010103;}
	.st105{fill:#020411;}
	.st106{fill:#020A0E;}
	.st107{fill:#010202;}
	.st108{fill:#010203;}
	.st109{fill:#010205;}
	.st110{fill:#01070F;}
	.st111{fill:#DDD9CC;}
	.st112{fill:#010204;}
	.st113{fill:#E6E2D7;}
	.st114{fill:#E4E0D5;}
	.st115{fill:#E7E3D8;}
	.st116{fill:#E1DCCF;}
	.st117{fill:#EEEBE2;}
	.st118{fill:#010F16;}
	.st119{fill:#424543;}
	.st120{fill:#5A5F5E;}
	.st121{fill:#444D4D;}
	.st122{fill:#6C6E6C;}
	.st123{fill:#6C7575;}
	.st124{fill:#526063;}
	.st125{fill:#989B98;}
	.st126{fill:#7D7A79;}
	.st127{fill:#767F7D;}
	.st128{fill:#020613;}
	.st129{fill:#C22915;}
	.st130{fill:#FBB670;}
	.st131{fill:#961E13;}
	.st132{fill:#F08844;}
	.st133{fill:#8E1D13;}
	.st134{fill:#921D13;}
	.st135{fill:#931D12;}
	.st136{fill:#961D13;}
	.st137{fill:#F6DE93;}
	.st138{fill:#0E313D;}
	.st139{fill:#E98B47;}
	.st140{fill:#795837;}
	.st141{fill:#8F5C35;}
	.st142{fill:#561E1B;}
	.st143{fill:#5D231A;}
	.st144{fill:#855F3B;}
	.st145{fill:#4F1B17;}
	.st146{fill:#113A4B;}
	.st147{fill:#7C5433;}
	.st148{fill:#020320;}
	.st149{fill:#FCB670;}
	.st150{fill:#F6EDDE;}
	.st151{fill:#CEC9BC;}
	.st152{fill:#FDFCFC;}
	.st153{fill:#3D4547;}
	.st154{fill:#6D4B2C;}
	.st155{fill:#FBB66F;}
	.st156{fill:#617977;}
	.st157{fill:#0D3E5A;}
	.st158{fill:#EF8843;}
	.st159{fill:#E1DBCD;}
	.st160{fill:#05232E;}
	.st161{fill:#324746;}
	.st162{fill:#293E3E;}
	.st163{fill:#7D4F2A;}
	.st164{fill:#6F5715;}
	.st165{fill:#1A587A;}
	.st166{fill:#42271A;}
	.st167{fill:#221C18;}
	.st168{fill:#031116;}
	.st169{fill:#251D18;}
	.st170{fill:#60351C;}
	.st171{fill:#352319;}
	.st172{fill:#99825A;}
	.st173{fill:#6B4C30;}
	.st174{fill:#211C18;}
	.st175{fill:#1D1A17;}
	.st176{fill:#F3B358;}
	.st177{fill:#D78B3A;}
	.st178{fill:#2F3E40;}
	.st179{fill:#162D32;}
	.st180{fill:#FDE678;}
	.st181{fill:#DC8E38;}
	.st182{fill:#EE9B41;}
	.st183{fill:#A91E12;}
	.st184{fill:#DA2D15;}
	.st185{fill:#ED421D;}
	.st186{fill:#06121D;}
	.st187{fill:#631714;}
	.st188{fill:#991F13;}
	.st189{fill:#762218;}
	.st190{fill:#FBF4A4;}
	.st191{fill:#FDC679;}
	.st192{fill:#F48943;}
	.st193{fill:#FDF4B9;}
	.st194{fill:#795633;}
	.st195{fill:#745032;}
	.st196{fill:#FBB56F;}
	.st197{fill:#E98545;}
	.st198{fill:#EB8946;}
	.st199{fill:#F89F4D;}
	.st200{fill:#F38D46;}
	.st201{fill:#5E4129;}
	.st202{fill:#F98C47;}
	.st203{fill:#0D3F5D;}
	.st204{fill:#2E7395;}
	.st205{fill:#FCD788;}
	.st206{fill:#347DA1;}
	.st207{fill:#A22416;}
	.st208{fill:#FBB306;}
	.st209{fill:#DD7D03;}
	.st210{fill:#DC7D03;}
	.st211{fill:#FDB903;}
	.st212{fill:#FAB303;}
	.st213{fill:#FBB104;}
	.st214{fill:#FCBF04;}
	.st215{fill:#E27D02;}
	.st216{fill:#423818;}
	.st217{fill:#EBD63B;}
	.st218{fill:#F49902;}
	.st219{fill:#F99501;}
	.st220{fill:#E6471B;}
	.st221{fill:#B42E19;}
	.st222{fill:#2C2823;}
	.st223{fill:#F28942;}
	.st224{fill:#FCF4B5;}
	.st225{fill:#FAF9F1;}
	.st226{fill:#F8F8F7;}
	.st227{fill:#0D3D59;}
	.st228{fill:#062530;}
	.st229{fill:#564027;}
	.st230{fill:#FBFBF9;}
	.st231{fill:#FDEDA3;}
	.st232{fill:#2A3A3D;}
	.st233{fill:#3F4C4C;}
	.st234{fill:#F6EEDF;}
	.st235{fill:#90A29D;}
	.st236{fill:#0D3E5B;}
	.st237{fill:#20668B;}
	.st238{fill:#FAF9F2;}
	.st239{fill:#FDFDFC;}
	.st240{fill:#C6C1B4;}
	.st241{fill:#959994;}
	.st242{fill:#201B18;}
	.st243{fill:#7A421F;}
	.st244{fill:#7D441F;}
	.st245{fill:#804520;}
	.st246{fill:#FDD182;}
	.st247{fill:#9A5E32;}
	.st248{fill:#77411F;}
	.st249{fill:#FBA54E;}
	.st250{fill:#F58C45;}
	.st251{fill:#E68341;}
	.st252{fill:#FAD182;}
	.st253{fill:#C8935A;}
	.st254{fill:#41281A;}
	.st255{fill:#46291A;}
	.st256{fill:#BE722A;}
	.st257{fill:#647372;}
	.st258{fill:#02050C;}
	.st259{fill:#010812;}
	.st260{fill:#02151A;}
	.st261{fill:#B5905C;}
	.st262{fill:#9A7C52;}
	.st263{fill:#FBDF95;}
	.st264{fill:#FCB303;}
	.st265{fill:#FC723B;}
	.st266{fill:#B8C9C1;}
	.st267{fill:#E6F2E8;}
	.st268{fill:#FEFEFD;}
	.st269{fill:#FEFDFA;}
	.st270{fill:#E58443;}
	.st271{fill:#020203;}
	.st272{fill:#020710;}
	.st273{fill:#020303;}
	.st274{fill:#0A0A09;}
	.st275{fill:#EC8844;}
	.st276{fill:#FDE29A;}
	.st277{fill:#FCF1B0;}
	.st278{fill:#E79553;}
	.st279{fill:#03050B;}
	.st280{fill:#03161A;}
	.st281{fill:#D04722;}
	.st282{fill:#02161B;}
	.st283{fill:#02030D;}
	.st284{fill:#7F5533;}
	.st285{fill:#E3633E;}
	.st286{fill:#F7F7F6;}
</style>

<g
   id="g70">
	<path
   class="st2"
   d="M831.6,513.7c30.1-48,20.3-76.2-32.8-94.6c-37.8-13.2-77.3-19.2-116.5-25.8c-16.1-2.7-24.9-10.5-32.2-24   c-15.2-28.1-31.1-55.8-47.7-83.2c-10.2-16.8-22-32.7-37.7-45.1c-15.4-12.2-33.1-12.1-48.6,0.2c-9.7,7.7-17.8,16.9-25.3,26.8   c-23.4,31.2-42.1,65.2-60.8,99.2c-8.1,14.8-18.7,23.1-36.3,26.1c-43.1,7.3-86.7,13-127.1,31.3C231,440.8,222.8,465,240.7,500   c2.5,4.8,5.2,9.5,8.1,14c19.8,30.8,44.8,57.3,70.5,83.1c10.1,10.2,12.8,20.2,9.6,34.4c-10.3,46-21.1,92.1-22.4,138.7   c0.3,13.2-0.2,25.4,3.1,37.6c8.3,30.8,31.4,45.4,62.5,38.7c16.4-3.6,32.2-9.1,47.1-16.9c34-17.7,68-35.5,101.3-54.4   c13.6-7.7,24.9-7.9,38.4,0c30.1,17.5,60.8,34.2,91.7,50.5c18.3,9.7,37.5,17.4,58,21.2c28.9,5.3,51.5-8.7,60.1-36.8   c5.2-16.8,4.6-34,3.2-51.2c-3.5-42.3-11.4-83.8-21.1-125c-3.4-14.7-1.1-25.9,10.2-37.2C786.7,571,812.1,544.7,831.6,513.7z    M739.7,644.3c11.1,46.2,21.1,92.6,19.6,140.8c-1.4,43.3-25.9,60.8-66.4,45c-42.7-16.6-83-38.2-121.3-62.9   c-21.7-14-40.7-14-62.8-0.8c-42.9,25.7-86.3,50.9-134.3,66.4c-17.1,5.5-33.1,5.1-44.4-11.9c-12.5-17-12.2-36.8-11.1-56.2   c2.8-50.3,16.7-98.7,26.3-147.9c-1.3-9.7-6.4-17-13.2-23.9c-27.8-27.8-53.9-57-75.4-90c-6.1-9.3-12.7-18.9-12-31   c-2-19.9,10.4-29.9,26.2-36.4c31.4-12.9,64.5-20.2,97.9-25.6c14-2.2,28.1-4.2,42-6.8c9.1-1.7,16-6.6,20.8-14.9   c15.2-26.3,30.9-52.4,46.3-78.6c12.2-20.8,25.9-40.6,43.8-56.9c10-9.1,19.2-10.4,27-4.5c0.4,0.3,0.7,0.6,1.1,0.9   c0.3,0.3,0.7,0.6,1,0.9c0.3,0.4,0.7,0.7,1,1c0.4,0.4,0.7,0.7,1,1.1c2.1,0.1,3.9,0.5,5.6,1.3c0.4,0.2,0.8,0.4,1.2,0.6   c0.8,0.4,1.6,0.9,2.3,1.4c0.4,0.2,0.7,0.5,1.1,0.8c0.6,0.5,1.2,1,1.8,1.6c0.4,0.4,0.8,0.8,1.2,1.2c0.8,0.8,1.5,1.7,2.2,2.6   c0.7,0.9,1.5,1.8,2.1,2.6c31.9,40.1,55,85.4,79.3,130.2v0c0.3,0.2,0.6,0.4,0.9,0.7c0.6,0.4,1.2,0.9,1.8,1.3   c0.9,0.6,1.8,1.2,2.7,1.7c0.6,0.4,1.2,0.7,1.9,1c1.5,0.8,3,1.5,4.6,2.1c2,0.8,4.2,1.6,6.3,2.2c2.1,0.7,4.3,1.2,6.4,1.6   c9.9,2.1,20.1,2.7,29.9,4.6c38.1,7.3,76.3,13.9,111.8,30.2c8.6,3.9,16.6,9,17.4,20c6.2,18.6-2.9,34.1-12.4,47.8   c-19.2,27.8-40.9,54.2-65.6,77.2C736.4,602.8,734,620.8,739.7,644.3z"
   id="path6" />
	<path
   class="st3"
   d="M591.4,528c2.2,2.6,6.5,6.7,12.2,8.6c4.9,1.6,9.6,1.2,13.2,0.2C609.2,536.2,599.8,534.1,591.4,528z M591.4,528   c2.2,2.6,6.5,6.7,12.2,8.6c4.9,1.6,9.6,1.2,13.2,0.2C609.2,536.2,599.8,534.1,591.4,528z M591.4,528c2.2,2.6,6.5,6.7,12.2,8.6   c4.9,1.6,9.6,1.2,13.2,0.2C609.2,536.2,599.8,534.1,591.4,528z M591.4,528c2.2,2.6,6.5,6.7,12.2,8.6c4.9,1.6,9.6,1.2,13.2,0.2   C609.2,536.2,599.8,534.1,591.4,528z M591.4,528c2.2,2.6,6.5,6.7,12.2,8.6c4.9,1.6,9.6,1.2,13.2,0.2   C609.2,536.2,599.8,534.1,591.4,528z M591.4,528c2.2,2.6,6.5,6.7,12.2,8.6c4.9,1.6,9.6,1.2,13.2,0.2   C609.2,536.2,599.8,534.1,591.4,528z M591.4,528c2.2,2.6,6.5,6.7,12.2,8.6c4.9,1.6,9.6,1.2,13.2,0.2   C609.2,536.2,599.8,534.1,591.4,528z M591.4,528c2.2,2.6,6.5,6.7,12.2,8.6c4.9,1.6,9.6,1.2,13.2,0.2   C609.2,536.2,599.8,534.1,591.4,528z M591.4,528c2.2,2.6,6.5,6.7,12.2,8.6c4.9,1.6,9.6,1.2,13.2,0.2   C609.2,536.2,599.8,534.1,591.4,528z M591.4,528c2.2,2.6,6.5,6.7,12.2,8.6c4.9,1.6,9.6,1.2,13.2,0.2   C609.2,536.2,599.8,534.1,591.4,528z M591.4,528c2.2,2.6,6.5,6.7,12.2,8.6c4.9,1.6,9.6,1.2,13.2,0.2   C609.2,536.2,599.8,534.1,591.4,528z M591.4,528c2.2,2.6,6.5,6.7,12.2,8.6c4.9,1.6,9.6,1.2,13.2,0.2   C609.2,536.2,599.8,534.1,591.4,528z M624.7,376.1c0.2,0.4,0.4,0.9,0.5,1.4C625.1,377.1,625,376.6,624.7,376.1z M603.6,536.6   c4.9,1.6,9.6,1.2,13.2,0.2c-7.6-0.6-16.9-2.7-25.4-8.8C593.5,530.5,597.8,534.7,603.6,536.6z M620.3,367.8   c-17.7-32.7-33.1-66.7-56.1-96.2C582.3,302.4,609.7,349.2,620.3,367.8z M591.4,528c2.2,2.6,6.5,6.7,12.2,8.6   c4.9,1.6,9.6,1.2,13.2,0.2C609.2,536.2,599.8,534.1,591.4,528z M591.4,528c2.2,2.6,6.5,6.7,12.2,8.6c4.9,1.6,9.6,1.2,13.2,0.2   C609.2,536.2,599.8,534.1,591.4,528z M591.4,528c2.2,2.6,6.5,6.7,12.2,8.6c4.9,1.6,9.6,1.2,13.2,0.2   C609.2,536.2,599.8,534.1,591.4,528z M591.4,528c2.2,2.6,6.5,6.7,12.2,8.6c4.9,1.6,9.6,1.2,13.2,0.2   C609.2,536.2,599.8,534.1,591.4,528z M591.4,528c2.2,2.6,6.5,6.7,12.2,8.6c4.9,1.6,9.6,1.2,13.2,0.2   C609.2,536.2,599.8,534.1,591.4,528z M591.4,528c2.2,2.6,6.5,6.7,12.2,8.6c4.9,1.6,9.6,1.2,13.2,0.2   C609.2,536.2,599.8,534.1,591.4,528z M591.4,528c2.2,2.6,6.5,6.7,12.2,8.6c4.9,1.6,9.6,1.2,13.2,0.2   C609.2,536.2,599.8,534.1,591.4,528z M591.4,528c2.2,2.6,6.5,6.7,12.2,8.6c4.9,1.6,9.6,1.2,13.2,0.2   C609.2,536.2,599.8,534.1,591.4,528z M591.4,528c2.2,2.6,6.5,6.7,12.2,8.6c4.9,1.6,9.6,1.2,13.2,0.2   C609.2,536.2,599.8,534.1,591.4,528z M591.4,528c2.2,2.6,6.5,6.7,12.2,8.6c4.9,1.6,9.6,1.2,13.2,0.2   C609.2,536.2,599.8,534.1,591.4,528z"
   id="path8" />
	<path
   class="st3"
   d="M816,440c-35.6-16.3-73.8-22.9-111.8-30.2c-9.8-1.9-20-2.5-29.9-4.6c-2.2-0.5-4.3-1-6.4-1.6   c-2.1-0.6-4.2-1.4-6.3-2.2c-1.5-0.7-3.1-1.4-4.6-2.1c-0.6-0.3-1.2-0.7-1.9-1c-0.9-0.6-1.8-1.1-2.7-1.7c-0.6-0.4-1.2-0.8-1.8-1.3   c-0.3-0.2-0.6-0.4-0.9-0.7v0c0.1,4.4-0.9,8.5-3.1,12.3c1.2,8.8,0.8,14.6-10.2,7.3c-9.8-6.5-20.5-11.7-32.6-13   c-5.9-0.7-10.9-2.7-10.7-9.6c0.2-7.2,5.3-10,11.7-11.1c7.7-1.3,14.4,2.2,21.1,5.1c-0.2-2.1-0.1-4.4-0.4-6.5   c-0.1-0.4-0.1-0.9-0.2-1.2c0,0-0.1-0.1-0.1-0.4c-0.1-0.4-0.3-0.9-0.5-1.4c-0.1-0.1-0.1-0.3-0.2-0.4c-1.4-2.4-2.7-4.9-4.1-7.4   c-0.1-0.1-0.1-0.3-0.2-0.4c-10.6-18.6-38-65.4-56.1-96.2c-4.5-7.7-8.4-14.4-11.4-19.4c-0.3-0.4-0.7-0.8-1-1.1c-0.4-0.4-0.7-0.7-1-1   c-0.4-0.3-0.7-0.7-1-0.9c-0.4-0.3-0.7-0.6-1.1-0.9c-7.8-5.9-17-4.6-27,4.5c-17.9,16.4-31.6,36.1-43.8,56.9   c-15.3,26.2-31.1,52.3-46.3,78.6c-4.8,8.3-11.7,13.2-20.8,14.9c-13.9,2.6-28,4.6-42,6.8c-33.5,5.4-66.5,12.8-97.9,25.6   c-15.8,6.5-28.2,16.5-26.2,36.4c13.7,4.8,17.6,18.9,26.1,28.4c23.4,26.2,46.5,52.8,70.5,78.5c9,9.6,16.5,19.7,9.7,34   c-1.2,2.6-3.1,3.5-5.7,4c-9.6,49.1-23.6,97.5-26.3,147.9c-1.1,19.4-1.4,39.2,11.1,56.2c34.7,2.2,63.7-13.8,92.7-29.4   c31.5-17,62.8-34.4,93.7-52.3c16-9.3,31-7.2,45.7,1.6c44.7,26.6,89.5,52.9,136.9,74.3c26,11.8,44.9,5.5,45.1-26.6   c0.3-48.4-7.7-95.7-19.8-142.1c-7.7-29.6-3-54,19.1-75c23.6-22.3,45.2-46.4,65.6-71.6c7.8-9.6,13.9-20.2,17.4-31.9   c1.2-4.1,1.7-7.6,6.8-7.9C832.6,449,824.6,444,816,440z M433.2,409.4c8.7-14.3,20.1-25.2,37.2-28.5c9.5-1.8,15.7,2.8,18.9,10.9   c-1.8,6.4-5.6,8.9-10.9,9.5c-13.8,1.7-26.7,5.6-37.6,14.8c-2.2,1.9-5.2,3.5-7.9,1.1C430.2,414.9,431.6,412,433.2,409.4z    M512.6,700.8c18,10.1,36.2,9.1,56.4-0.3C553.3,726.4,526.1,725.7,512.6,700.8z M689.3,574.9c-11.1,8.7-24.1,13.2-38.2,5.6   c-15.1-2-22.9,3.7-25.9,19.6c-2.9,15.4-10.6,29.5-17.5,43.7c-12.7,26-33.5,41-61.9,43.8c-31.4,3.1-53.6-13.5-69.7-38.3   c-10.7-16.4-19-34.6-23.1-54c-2.8-13.2-8-18.5-21.1-12.1c-2.6,1.2-4.8,0.2-6.4-1.9c-13.6,0.1-27.9,2.3-38-9.9   c-6.5-7.9-12.4-16.7-8.4-27.9c4.5-12.8,12.5-22.1,26.8-23.9c5.3-0.7,10.7-0.3,16.1-0.4c-12-30.6-6-58.3,16.6-77.6   c20-17,49.4-11.1,61.3,12.2c1.8,3.4,2.6,6.7,2.3,10.3c1.2,3.9,2.5,9.1,2.9,15.1c0,0,0,0,0,0.1c0.6,3.3,0.8,6.7,0.8,10.1   c0,16.6-6.4,31.3-16.2,40.5c-1.5,1.9-3.4,3.5-5.7,4.9c-7.5,11.4-18.6,7.3-29,6.8c-0.1,6.2-0.3,12.5-0.5,18.7   c-3.3,11.8,4.5,15.5,13.4,18.5c47.1,15.7,94.1,15.2,141.2-0.1c9.1-3,17.5-5.9,13.7-18.3c0.1-7.2,0.1-14.3,0.2-21.5   c-2.6,0.7-5.3,1-8.1,1c-22.3,0-40.3-22.6-40.3-50.5c0-3.5,0.3-6.9,0.8-10.1c0,0,0,0,0-0.1c0.5-6.2,1.8-11.4,3-15.3   c0.6-19.6,21.9-36,41.4-31.9c27.8,5.9,47.7,38.2,40.9,67.2c-1.1,4.8-1.8,9.6-2.4,14.4c0.3,2.4,1.2,3.8,2.5,4.5   c0.4,0.3,0.9,0.4,1.3,0.6c1.9,0.6,4.2,0.4,6.4,0.5c15.8,0.7,25.5,10.3,30.3,23.9C703.1,555,699.2,567.1,689.3,574.9z"
   id="path10" />
	<path
   class="st4"
   d="M505.1,479.3C505.1,479.3,505.1,479.3,505.1,479.3c-0.5-6.1-1.7-11.3-2.9-15.2c0-0.1,0-0.1-0.1-0.2   c-1.2-1.1-2.3-2.2-3.4-3.4c-7.3-13.1-19.4-21.6-33.1-21.6c-17.2,0-31.9,13.5-37.7,32.6c-1.6,4.2-2.8,8.8-3.4,13.5   c-1.3,9.8-0.8,19.4,1.1,28.9v0c0.1,0.4,0.1,0.7,0.2,1.1c0.4,1.6,0.7,3.2,1.2,4.9c3.7,2.7,7.8,5,11.8,7.4c3.7,4.1,7.9,7.3,12.6,9.5   c1.4,1.5,2.6,3.1,3.7,4.8c10.3,0.6,21.5,4.7,29-6.8c2.3-1.4,4.1-3,5.7-4.9c9.8-9.2,16.2-23.9,16.2-40.5   C505.9,486,505.7,482.6,505.1,479.3z M449,527.9C449,527.9,449,527.9,449,527.9l0.3,0.1C449.2,527.9,449.1,527.9,449,527.9z    M493,522.7c-0.8,1.2-1.6,2.3-2.4,3.5c-0.2,0.4-0.7,1-1.3,1.7c0,0-0.1,0-0.1,0.1c-2.1,2.5-6.1,6.4-11.6,8.3   c-17.2,2.9-27.4-4.8-31-23.8c-2.2-11.8-1.1-23.5,5.1-34.3c4.2-7.4,10.2-12.7,18.4-13.6c13.8,0.1,21.1,10.2,24.7,22.2   c3.7,12.1,1.1,24.1-2.3,36L493,522.7z"
   id="path12" />
	<path
   class="st5"
   d="M330.1,820.8c34.7,2.2,63.7-13.8,92.7-29.4c31.5-16.9,62.8-34.4,93.7-52.3c16.1-9.3,31-7.2,45.7,1.6   c44.7,26.6,89.5,52.9,136.9,74.3c26,11.8,44.9,5.5,45.1-26.6c0.3-48.4-7.7-95.7-19.8-142.1c-7.7-29.6-3-54,19.1-75   c23.6-22.3,45.2-46.4,65.6-71.6c7.8-9.6,13.8-20.2,17.4-31.9c1.2-4.1,1.7-7.6,6.8-7.9c6.2,18.6-2.9,34.1-12.4,47.8   c-19.2,27.9-40.9,54.3-65.6,77.2c-19.1,17.7-21.4,35.8-15.8,59.2c11.1,46.2,21.1,92.6,19.6,140.8c-1.4,43.3-25.9,60.8-66.4,45   c-42.7-16.6-82.9-38.2-121.3-62.9c-21.7-14-40.7-14-62.7-0.8c-42.9,25.7-86.3,50.9-134.3,66.4C357.5,838.3,341.4,837.9,330.1,820.8   z"
   id="path14" />
	<path
   class="st5"
   d="M244.7,472c13.7,4.8,17.6,18.9,26.1,28.4c23.4,26.2,46.5,52.8,70.5,78.5c9,9.6,16.5,19.8,9.7,34   c-1.2,2.6-3.2,3.5-5.7,4c-1.3-9.7-6.4-17-13.2-23.9c-27.8-27.8-53.9-57-75.4-90C250.6,493.6,244.1,484.1,244.7,472z"
   id="path16" />
	<path
   class="st5"
   d="M649.7,394.6L649.7,394.6c0.1,4.4-0.9,8.5-3.1,12.3c-6.3-7.6-12.5-15.4-20.7-21.2c-0.2-2.1-0.1-4.4-0.4-6.5   c0-0.4-0.1-0.8-0.2-1.2c0,0-0.1-0.1-0.1-0.4c-0.1-0.5-0.3-1-0.5-1.4c-0.1-0.1-0.1-0.3-0.2-0.4c-0.3-0.7-1.8-3.3-4.1-7.4   c-0.1-0.1-0.1-0.3-0.2-0.4c-10.6-18.6-38-65.4-56.1-96.2c-4.5-7.7-8.4-14.4-11.4-19.4c8.4,0.3,13.1,6.5,17.6,12.1   C602.3,304.5,625.5,349.8,649.7,394.6z"
   id="path18" />
	<path
   class="st6"
   d="M623,560.5c3.8,12.4-4.7,15.3-13.7,18.3c-47.1,15.3-94.1,15.8-141.2,0.1c-9-3-16.7-6.7-13.4-18.5   c-15.3-0.7-25.6,5.4-29.1,20.9c1.7,2.1,3.9,3.2,6.4,1.9c13.1-6.4,18.3-1.1,21.1,12.1c4.1,19.4,12.4,37.6,23.1,54   c16.2,24.8,38.4,41.4,69.7,38.3c28.4-2.8,49.2-17.8,61.9-43.8c6.9-14.2,14.6-28.4,17.5-43.7c3-15.9,10.7-21.6,25.9-19.6   C649,563.6,636.9,560.8,623,560.5z M584,661.6c-12.2,11.2-26,21-45.3,20.1c-12.7,0.3-24.6-4.2-34.9-13.8   c-6.9-6.4-7.3-12.4-0.5-18.7c8.6-8,19.6-14.8,30.6-10.8c13.4,4.9,24.6,1,36.7-1.9c9.6-2.3,22.5-5.9,27.2,3.1   C602.2,648.1,590.3,655.8,584,661.6z M563.5,623.6c-31.4-3.4-69,7.1-87.9-31.7c44.7,10.9,88.4,10.6,132.1-4   C605.1,605.9,583.2,625.8,563.5,623.6z"
   id="path20" />
	<path
   class="st5"
   d="M698.9,543.1c-4.8-13.5-14.5-23.2-30.3-23.9c-2.1-0.1-4.5,0.1-6.4-0.5c-0.5-0.1-0.9-0.3-1.3-0.6   c-1.2-0.8-2.1-2.1-2.5-4.5c-1,0.2-2,0.4-3,0.5c-2.9,4.1-6.5,7.1-10.5,9.2c-5.6,7.8-13.2,13.4-21.8,15.6c-0.1,7.2-0.1,14.3-0.2,21.5   c13.9,0.3,26,3.1,28.1,20c14.1,7.6,27.1,3.1,38.2-5.6C699.2,567.1,703.1,555,698.9,543.1z M665.3,542.9c-3.9-0.5-9.9,0.9-8.9-5.9   c0.7-5,4.7-8.8,10.2-8.3c4.4,0.4,9,2.3,9.2,7.6C676,543.7,670.1,542.6,665.3,542.9z M631.4,528c0.1,0,0.2,0,0.3-0.1   c0,0,0-0.1,0.1-0.1L631.4,528z"
   id="path22" />
	<path
   class="st5"
   d="M451.4,536.8c-4.6-2.2-8.9-5.5-12.6-9.5c-4-2.4-8.1-4.7-11.8-7.4c-1.7-0.2-3.4-0.4-5.1-0.7   c-5.4,0.1-10.8-0.3-16.1,0.4c-14.3,1.8-22.2,11.1-26.8,23.9c-4,11.3,1.9,20.1,8.4,27.9c10,12.1,24.4,10,38,9.9   c3.6-15.5,13.9-21.6,29.1-20.9c0.1-6.2,0.3-12.5,0.5-18.7C454,539.9,452.8,538.3,451.4,536.8z M409.1,542.9   c-4.5-0.3-9.9-0.7-9.4-6.6c0.4-4.5,4.5-8.1,9.4-7.6c5.3,0.5,9.5,4.1,9.2,9.7C418.1,544,412.8,542.4,409.1,542.9z"
   id="path24" />
	<path
   class="st6"
   d="M495,486.9c-3.7-11.9-10.9-22.1-24.7-22.2c-8.3,0.8-14.3,6.2-18.4,13.6c-6.1,10.7-7.3,22.4-5.1,34.3   c3.5,19,13.8,26.7,31,23.8c5.4-1.9,9.5-5.9,11.6-8.3c0,0,0,0,0.1-0.1c0.6-0.7,1-1.3,1.3-1.7c0.8-1.2,1.6-2.3,2.4-3.5l-0.3,0.1   C496.1,511,498.8,499,495,486.9z M464.7,492c-4.7,0.3-7-3.3-6.9-7.8c0.2-5,3-8.6,8-8.9c4.8-0.3,6.7,3.2,7,7.7   C472.3,487.9,469.7,491.7,464.7,492z"
   id="path26" />
	<path
   class="st2"
   d="M502.2,464.1c0,0.8-0.1,1.7-0.3,2.5c-0.4-0.2-1.1-0.3-1.3-0.6c-9.4-16.7-22.1-27.5-42.6-23.2   c-13.5,2.9-24.4,13.9-30,28.7c-1.6,4.2-2.8,8.8-3.4,13.5c-1.3,9.8-0.8,19.4,1.1,28.9v0c0.1,0.4,0.1,0.7,0.2,1.1   c0.4,1.6,0.7,3.2,1.2,4.9c-1.7-0.2-3.4-0.4-5.1-0.7c-12-30.6-6-58.3,16.6-77.6c20-17,49.4-11.1,61.3,12.2   C501.6,457.3,502.5,460.6,502.2,464.1z"
   id="path28" />
	<path
   class="st2"
   d="M660.9,499.2c-1.1,4.8-1.8,9.6-2.4,14.4c-1,0.2-2,0.4-3,0.5c-5.3-3.1-1.3-6.7-0.7-10.1   c1.2-6.5,1.3-12.9,0.4-19.1c-1.8-25.8-19.1-46-40.2-46c-13.7,0-25.8,8.6-33.1,21.6c-1.1,1.2-2.2,2.3-3.4,3.4   c0.6-19.6,21.9-36,41.4-31.9C647.8,438,667.7,470.2,660.9,499.2z"
   id="path30" />
	<path
   class="st2"
   d="M489.3,391.8c-1.8,6.4-5.6,8.9-10.9,9.5c-13.8,1.7-26.7,5.6-37.5,14.8c-2.2,1.9-5.2,3.5-7.9,1.1   c-2.7-2.4-1.3-5.3,0.2-7.9c8.7-14.3,20.1-25.2,37.2-28.5C479.9,379.1,486,383.7,489.3,391.8z"
   id="path32" />
	<path
   class="st2"
   d="M625.9,385.7c8.2,5.8,14.4,13.5,20.7,21.2c1.2,8.8,0.8,14.6-10.2,7.3c-9.8-6.5-20.5-11.7-32.6-13   c-6-0.7-10.9-2.7-10.7-9.6c0.2-7.2,5.3-10,11.6-11.1C612.5,379.2,619.1,382.7,625.9,385.7z"
   id="path34" />
	<path
   class="st5"
   d="M512.6,700.8c18,10.1,36.2,9.1,56.4-0.3C553.3,726.4,526.2,725.7,512.6,700.8z"
   id="path36" />
	<path
   class="st7"
   d="M584,661.6c-12.2,11.2-26,21-45.3,20.1c-12.7,0.3-24.6-4.2-34.9-13.8c-6.9-6.4-7.3-12.4-0.5-18.7   c1-0.9,2-1.8,3.1-2.7c4.2-1.7,11.6-4,20.9-3.7c7.7,0.2,13.8,2.2,17.7,3.7c0.1-0.4,0.3-0.7,0.5-1.1c0.7-1.4,1.5-2.8,2.3-4.2   c0.1-0.2,0.2-0.4,0.4-0.6c1.7,0,3.4-0.2,5.1-0.4c5.8-0.7,11.5-2.4,17.4-3.8c9.6-2.3,22.5-5.9,27.2,3.1   C602.2,648.1,590.3,655.8,584,661.6z"
   id="path38" />
	<path
   class="st4"
   d="M475.6,592c44.7,10.9,88.4,10.6,132.1-4c-2,6.2-6.2,16.5-15.7,25.4c-18.9,17.7-44.1,16-54.8,15.3   c-8.8-0.6-28.4-2.1-45.7-16.9C483.4,604.8,478.4,597.2,475.6,592z"
   id="path40" />
	<path
   class="st3"
   d="M665.3,542.9c-3.9-0.5-9.9,0.9-8.9-5.9c0.7-5,4.7-8.8,10.2-8.3c4.4,0.4,8.9,2.3,9.2,7.6   C676,543.8,670.1,542.6,665.3,542.9z"
   id="path42" />
	<path
   class="st4"
   d="M630.2,528c-0.5,0.7-1.1,1.5-1.8,2.1C628.5,529.1,629,528.4,630.2,528z"
   id="path44" />
	<path
   class="st4"
   d="M631.8,527.8C631.8,527.9,631.8,527.9,631.8,527.8c-0.1,0.1-0.3,0.1-0.4,0.1L631.8,527.8z"
   id="path46" />
	<path
   class="st3"
   d="M409.1,542.9c-4.6-0.3-10-0.7-9.4-6.6c0.4-4.5,4.5-8.1,9.4-7.6c5.3,0.5,9.5,4.1,9.2,9.7   C418.1,544,412.8,542.4,409.1,542.9z"
   id="path48" />
	<path
   class="st4"
   d="M603.2,475.1c4.6,0.5,7.1,3.3,7,7.6c-0.2,4.6-2.7,8.7-7.5,9.3c-4.7,0.6-6.6-3.1-6.7-7.4   C596,479.6,598.6,476.5,603.2,475.1z"
   id="path50" />
	<path
   class="st4"
   d="M472.9,482.9c-0.6,5-3.2,8.7-8.1,9.1c-4.7,0.3-7-3.3-6.8-7.8c0.2-5,3-8.6,8-8.9   C470.7,475,472.6,478.5,472.9,482.9z"
   id="path52" />
	<path
   class="st8"
   d="M532,279.1c-1.1,2-2.5,5.1-4.4,7.9c-12.3,18.2-24.7,36.5-37.2,54.6c-3,4.3-6.4,11-12.2,7.7   c-4.9-2.8-1.1-9,1.1-13.2c10.5-20.5,22.9-39.9,36.8-58.3c2.9-3.9,6.7-7.4,12.5-5.6C531.4,272.9,531.9,275.3,532,279.1z"
   id="path54" />
	<path
   class="st4"
   d="M656.1,501.5c0.1-6.1,0.3-19.4-2-28.2c-3.7-14.3-18.5-34.4-39-34.4c-19.5,0-31.8,18.1-33.1,20.1   c-0.2,0.8-0.6,2-1.6,3.2c-0.6,0.7-1.2,1.3-1.7,1.6c-1.2,3.9-2.5,9.1-3,15.3c0,0,0,0,0,0.1c-0.6,3.3-0.8,6.7-0.8,10.1   c0,27.9,18.1,50.5,40.3,50.5c2.8,0,5.5-0.4,8.1-1c8.6-2.2,16.2-7.8,21.8-15.6c4-2.2,7.5-5.2,10.5-9.2   C655.7,511.1,656.1,506.7,656.1,501.5z M631.7,527.9c-0.1,0-0.2,0-0.3,0.1L631.7,527.9C631.8,527.9,631.8,527.9,631.7,527.9z    M630.2,528c-0.5,0.7-1.1,1.5-1.8,2.1c-1.5,1.6-3.2,3-5.2,4.1c-0.4,0.2-2.9,1.6-6.5,2.5c-3.6,0.9-8.3,1.4-13.2-0.2   c-5.7-1.9-10-6-12.2-8.6c0,0,0,0-0.1-0.1c-0.6-0.7-1-1.3-1.3-1.7c-0.8-1.2-1.6-2.3-2.4-3.5l0.3,0.1c-3.4-11.8-6-23.8-2.3-36   c3.7-12,11-22.2,25-22.2c4,0,7.4,0.8,10.2,2.3c9.5,4.8,13,16.2,14.2,20.3C638.6,499.4,638.3,517.2,630.2,528z"
   id="path56" />
	<path
   class="st4"
   d="M425.6,513.9c-0.1,0.1-0.3,0.1-0.4,0.2c0.2,0.3,0.4,0.6,0.7,0.9C425.8,514.7,425.7,514.3,425.6,513.9z"
   id="path58" />
	<path
   class="st9"
   d="M631.8,527.8C631.8,527.9,631.8,527.9,631.8,527.8c-0.1,0.1-0.3,0.1-0.4,0.1L631.8,527.8z"
   id="path60" />
	<path
   class="st9"
   d="M630.2,528c-0.5,0.7-1.1,1.5-1.8,2.1c-1.5,1.6-3.2,3-5.2,4.1c-0.4,0.2-2.9,1.6-6.5,2.5   c-3.6,0.9-8.3,1.4-13.2-0.2c-5.7-1.9-10-6-12.2-8.6c0,0,0,0-0.1-0.1c-0.6-0.7-1-1.3-1.3-1.7c-0.8-1.2-1.6-2.3-2.4-3.5l0.3,0.1   c-3.4-11.8-6-23.8-2.3-36c3.7-12,11-22.2,25-22.2c4,0,7.4,0.8,10.2,2.3c9.5,4.8,13,16.2,14.2,20.3   C638.6,499.4,638.3,517.2,630.2,528z"
   id="path62" />
	<path
   class="st6"
   d="M635.1,487.3c-1.2-4.1-4.7-15.4-14.2-20.3c-2.9-1.5-6.2-2.3-10.2-2.3c-14,0-21.3,10.2-25,22.2   c-3.7,12.1-1.1,24.1,2.3,36l-0.3-0.1c0.8,1.2,1.6,2.3,2.4,3.5c0.2,0.4,0.7,1,1.3,1.7c0,0,0.1,0,0.1,0.1c2.2,2.6,6.5,6.7,12.2,8.6   c4.9,1.6,9.6,1.2,13.2,0.2c3.6-0.9,6.1-2.3,6.5-2.5c2-1.1,3.7-2.5,5.2-4.1c0.7-0.7,1.2-1.4,1.8-2.1   C638.3,517.2,638.6,499.4,635.1,487.3z M596.1,484.2C596.1,484.1,596.1,484.1,596.1,484.2v-0.4c-0.1-4.7,2.5-7.7,7.2-9.1   c4.6,0.5,7.2,3.2,7,7.3v0.1c0,0,0,0,0,0.1v0.1c-0.3,4.3-2.8,8-7.5,8.6c-4.4,0.5-6.4-2.6-6.7-6.4V484.2z"
   id="path64" />
	<path
   class="st6"
   d="M553.4,640.1c-0.1,0.1-0.2,0.1-0.3,0.2c-1,0.9-1.9,1.9-2.8,2.9c-1,1.1-1.9,2.3-2.8,3.5c-1.7,2.4-3.2,5-4.1,7.9   l-0.8-0.2c0.4-2.7,1.2-5.4,2.3-7.9c0.1-0.4,0.3-0.7,0.5-1.1c0.7-1.4,1.5-2.8,2.3-4.2c0.1-0.2,0.2-0.4,0.4-0.6   c0.7-1.2,1.5-2.3,2.4-3.4L553.4,640.1z"
   id="path66" />
	<path
   class="st10"
   d="M548.1,640.7c-0.1,0.2-0.2,0.4-0.4,0.6c-0.8,1.4-1.6,2.8-2.3,4.2c-0.2,0.4-0.3,0.7-0.5,1.1   c-3.9-1.2-9-2.3-14.9-2.5c-11.6-0.4-20.8,2.6-26.1,5c2.3-2.8,7.5-8.3,15.7-10.4c2.1-0.5,8.2-2.4,14.3-0.2   C538.9,640.2,543.5,640.9,548.1,640.7z"
   id="path68" />
</g>
</svg>
